<mxfile host="app.diagrams.net" modified="2024-06-16T20:04:20.737Z" agent="Mozilla/5.0 (X11; Ubuntu; Linux x86_64; rv:126.0) Gecko/20100101 Firefox/126.0" etag="dzd0DEalirQKWiBr4ue5" version="24.5.4" type="github">
  <diagram id="C5RBs43oDa-KdzZeNtuy" name="Page-1">
    <mxGraphModel dx="1947" dy="478" grid="1" gridSize="10" guides="1" tooltips="1" connect="1" arrows="1" fold="1" page="1" pageScale="1" pageWidth="827" pageHeight="1169" math="0" shadow="0">
      <root>
        <mxCell id="WIyWlLk6GJQsqaUBKTNV-0" />
        <mxCell id="WIyWlLk6GJQsqaUBKTNV-1" parent="WIyWlLk6GJQsqaUBKTNV-0" />
        <mxCell id="gC5JRu4wmFWCHZkaXRfN-0" value="Demo Mode" style="ellipse;whiteSpace=wrap;html=1;aspect=fixed;" vertex="1" parent="WIyWlLk6GJQsqaUBKTNV-1">
          <mxGeometry x="390" y="10" width="80" height="80" as="geometry" />
        </mxCell>
        <mxCell id="gC5JRu4wmFWCHZkaXRfN-1" value="Display Home Page" style="rounded=0;whiteSpace=wrap;html=1;" vertex="1" parent="WIyWlLk6GJQsqaUBKTNV-1">
          <mxGeometry x="370" y="150" width="120" height="60" as="geometry" />
        </mxCell>
        <mxCell id="gC5JRu4wmFWCHZkaXRfN-3" value="Calculate share out " style="rounded=0;whiteSpace=wrap;html=1;" vertex="1" parent="WIyWlLk6GJQsqaUBKTNV-1">
          <mxGeometry x="220" y="320" width="110" height="60" as="geometry" />
        </mxCell>
        <mxCell id="gC5JRu4wmFWCHZkaXRfN-4" value="Current Loans" style="rounded=0;whiteSpace=wrap;html=1;" vertex="1" parent="WIyWlLk6GJQsqaUBKTNV-1">
          <mxGeometry x="130" y="320" width="80" height="60" as="geometry" />
        </mxCell>
        <mxCell id="gC5JRu4wmFWCHZkaXRfN-5" value="Start Group Meeting" style="rounded=0;whiteSpace=wrap;html=1;" vertex="1" parent="WIyWlLk6GJQsqaUBKTNV-1">
          <mxGeometry x="10" y="320" width="110" height="60" as="geometry" />
        </mxCell>
        <mxCell id="gC5JRu4wmFWCHZkaXRfN-6" value="Members " style="rounded=0;whiteSpace=wrap;html=1;" vertex="1" parent="WIyWlLk6GJQsqaUBKTNV-1">
          <mxGeometry x="414" y="320" width="56" height="60" as="geometry" />
        </mxCell>
        <mxCell id="gC5JRu4wmFWCHZkaXRfN-7" value="&lt;div&gt;Group Screen&lt;/div&gt;&lt;div&gt;&lt;br&gt;&lt;/div&gt;&lt;div&gt;-Displays Account and Group details&lt;br&gt;&lt;/div&gt;" style="rounded=0;whiteSpace=wrap;html=1;" vertex="1" parent="WIyWlLk6GJQsqaUBKTNV-1">
          <mxGeometry x="340" y="320" width="60" height="100" as="geometry" />
        </mxCell>
        <mxCell id="gC5JRu4wmFWCHZkaXRfN-8" value="History " style="rounded=0;whiteSpace=wrap;html=1;" vertex="1" parent="WIyWlLk6GJQsqaUBKTNV-1">
          <mxGeometry x="480" y="320" width="50" height="60" as="geometry" />
        </mxCell>
        <mxCell id="gC5JRu4wmFWCHZkaXRfN-9" value="Constitution" style="rounded=0;whiteSpace=wrap;html=1;" vertex="1" parent="WIyWlLk6GJQsqaUBKTNV-1">
          <mxGeometry x="540" y="320" width="70" height="60" as="geometry" />
        </mxCell>
        <mxCell id="gC5JRu4wmFWCHZkaXRfN-10" value="Backup &amp;amp; Restore" style="rounded=0;whiteSpace=wrap;html=1;" vertex="1" parent="WIyWlLk6GJQsqaUBKTNV-1">
          <mxGeometry x="690" y="320" width="50" height="60" as="geometry" />
        </mxCell>
        <mxCell id="gC5JRu4wmFWCHZkaXRfN-11" value="feedback " style="rounded=0;whiteSpace=wrap;html=1;" vertex="1" parent="WIyWlLk6GJQsqaUBKTNV-1">
          <mxGeometry x="620" y="320" width="60" height="60" as="geometry" />
        </mxCell>
        <mxCell id="gC5JRu4wmFWCHZkaXRfN-12" value="Settings" style="rounded=0;whiteSpace=wrap;html=1;" vertex="1" parent="WIyWlLk6GJQsqaUBKTNV-1">
          <mxGeometry x="750" y="320" width="50" height="60" as="geometry" />
        </mxCell>
        <mxCell id="gC5JRu4wmFWCHZkaXRfN-13" value="" style="endArrow=none;html=1;rounded=0;" edge="1" parent="WIyWlLk6GJQsqaUBKTNV-1">
          <mxGeometry width="50" height="50" relative="1" as="geometry">
            <mxPoint x="430" y="260" as="sourcePoint" />
            <mxPoint x="430" y="210" as="targetPoint" />
          </mxGeometry>
        </mxCell>
        <mxCell id="gC5JRu4wmFWCHZkaXRfN-14" value="" style="endArrow=none;html=1;rounded=0;" edge="1" parent="WIyWlLk6GJQsqaUBKTNV-1">
          <mxGeometry width="50" height="50" relative="1" as="geometry">
            <mxPoint x="50" y="260" as="sourcePoint" />
            <mxPoint x="780" y="260" as="targetPoint" />
          </mxGeometry>
        </mxCell>
        <mxCell id="gC5JRu4wmFWCHZkaXRfN-15" value="" style="endArrow=classic;html=1;rounded=0;" edge="1" parent="WIyWlLk6GJQsqaUBKTNV-1">
          <mxGeometry width="50" height="50" relative="1" as="geometry">
            <mxPoint x="50" y="260" as="sourcePoint" />
            <mxPoint x="50" y="320" as="targetPoint" />
          </mxGeometry>
        </mxCell>
        <mxCell id="gC5JRu4wmFWCHZkaXRfN-16" value="" style="endArrow=classic;html=1;rounded=0;" edge="1" parent="WIyWlLk6GJQsqaUBKTNV-1">
          <mxGeometry width="50" height="50" relative="1" as="geometry">
            <mxPoint x="280" y="260" as="sourcePoint" />
            <mxPoint x="280" y="320" as="targetPoint" />
          </mxGeometry>
        </mxCell>
        <mxCell id="gC5JRu4wmFWCHZkaXRfN-17" value="" style="endArrow=classic;html=1;rounded=0;" edge="1" parent="WIyWlLk6GJQsqaUBKTNV-1">
          <mxGeometry width="50" height="50" relative="1" as="geometry">
            <mxPoint x="160" y="260" as="sourcePoint" />
            <mxPoint x="160" y="320" as="targetPoint" />
          </mxGeometry>
        </mxCell>
        <mxCell id="gC5JRu4wmFWCHZkaXRfN-18" value="" style="endArrow=classic;html=1;rounded=0;" edge="1" parent="WIyWlLk6GJQsqaUBKTNV-1">
          <mxGeometry width="50" height="50" relative="1" as="geometry">
            <mxPoint x="441.5" y="260" as="sourcePoint" />
            <mxPoint x="441.5" y="320" as="targetPoint" />
          </mxGeometry>
        </mxCell>
        <mxCell id="gC5JRu4wmFWCHZkaXRfN-19" value="" style="endArrow=classic;html=1;rounded=0;" edge="1" parent="WIyWlLk6GJQsqaUBKTNV-1">
          <mxGeometry width="50" height="50" relative="1" as="geometry">
            <mxPoint x="510" y="260" as="sourcePoint" />
            <mxPoint x="510" y="320" as="targetPoint" />
          </mxGeometry>
        </mxCell>
        <mxCell id="gC5JRu4wmFWCHZkaXRfN-20" value="" style="endArrow=classic;html=1;rounded=0;" edge="1" parent="WIyWlLk6GJQsqaUBKTNV-1">
          <mxGeometry width="50" height="50" relative="1" as="geometry">
            <mxPoint x="574.5" y="260" as="sourcePoint" />
            <mxPoint x="574.5" y="320" as="targetPoint" />
          </mxGeometry>
        </mxCell>
        <mxCell id="gC5JRu4wmFWCHZkaXRfN-21" value="" style="endArrow=classic;html=1;rounded=0;" edge="1" parent="WIyWlLk6GJQsqaUBKTNV-1">
          <mxGeometry width="50" height="50" relative="1" as="geometry">
            <mxPoint x="640" y="260" as="sourcePoint" />
            <mxPoint x="640" y="320" as="targetPoint" />
          </mxGeometry>
        </mxCell>
        <mxCell id="gC5JRu4wmFWCHZkaXRfN-22" value="" style="endArrow=classic;html=1;rounded=0;" edge="1" parent="WIyWlLk6GJQsqaUBKTNV-1">
          <mxGeometry width="50" height="50" relative="1" as="geometry">
            <mxPoint x="714.5" y="260" as="sourcePoint" />
            <mxPoint x="714.5" y="320" as="targetPoint" />
          </mxGeometry>
        </mxCell>
        <mxCell id="gC5JRu4wmFWCHZkaXRfN-23" value="" style="endArrow=classic;html=1;rounded=0;" edge="1" parent="WIyWlLk6GJQsqaUBKTNV-1">
          <mxGeometry width="50" height="50" relative="1" as="geometry">
            <mxPoint x="360" y="260" as="sourcePoint" />
            <mxPoint x="360" y="320" as="targetPoint" />
          </mxGeometry>
        </mxCell>
        <mxCell id="gC5JRu4wmFWCHZkaXRfN-24" value="" style="endArrow=classic;html=1;rounded=0;" edge="1" parent="WIyWlLk6GJQsqaUBKTNV-1">
          <mxGeometry width="50" height="50" relative="1" as="geometry">
            <mxPoint x="780" y="260" as="sourcePoint" />
            <mxPoint x="780" y="320" as="targetPoint" />
          </mxGeometry>
        </mxCell>
        <mxCell id="gC5JRu4wmFWCHZkaXRfN-25" value="" style="endArrow=classic;html=1;rounded=0;" edge="1" parent="WIyWlLk6GJQsqaUBKTNV-1">
          <mxGeometry width="50" height="50" relative="1" as="geometry">
            <mxPoint x="429.5" y="90" as="sourcePoint" />
            <mxPoint x="429.5" y="150" as="targetPoint" />
          </mxGeometry>
        </mxCell>
        <mxCell id="gC5JRu4wmFWCHZkaXRfN-26" value="Mark Attendance " style="rounded=0;whiteSpace=wrap;html=1;" vertex="1" parent="WIyWlLk6GJQsqaUBKTNV-1">
          <mxGeometry x="-40" y="420" width="100" height="60" as="geometry" />
        </mxCell>
        <mxCell id="gC5JRu4wmFWCHZkaXRfN-27" value="Contribute To Welfare" style="rounded=0;whiteSpace=wrap;html=1;" vertex="1" parent="WIyWlLk6GJQsqaUBKTNV-1">
          <mxGeometry x="-40" y="620" width="120" height="60" as="geometry" />
        </mxCell>
        <mxCell id="gC5JRu4wmFWCHZkaXRfN-28" value="&lt;div&gt;Balance Verification&lt;/div&gt;&lt;div&gt;-Saving fund&lt;br&gt;-Welfare fund&lt;br&gt;&lt;/div&gt;" style="rounded=0;whiteSpace=wrap;html=1;" vertex="1" parent="WIyWlLk6GJQsqaUBKTNV-1">
          <mxGeometry x="-40" y="520" width="120" height="60" as="geometry" />
        </mxCell>
        <mxCell id="gC5JRu4wmFWCHZkaXRfN-29" value="Buy shares" style="rounded=0;whiteSpace=wrap;html=1;" vertex="1" parent="WIyWlLk6GJQsqaUBKTNV-1">
          <mxGeometry x="-20" y="730" width="70" height="60" as="geometry" />
        </mxCell>
        <mxCell id="gC5JRu4wmFWCHZkaXRfN-30" value="Pay Fines " style="rounded=0;whiteSpace=wrap;html=1;" vertex="1" parent="WIyWlLk6GJQsqaUBKTNV-1">
          <mxGeometry x="-20" y="920" width="70" height="60" as="geometry" />
        </mxCell>
        <mxCell id="gC5JRu4wmFWCHZkaXRfN-31" value="Repay Loans " style="rounded=0;whiteSpace=wrap;html=1;" vertex="1" parent="WIyWlLk6GJQsqaUBKTNV-1">
          <mxGeometry x="-25" y="820" width="90" height="60" as="geometry" />
        </mxCell>
        <mxCell id="gC5JRu4wmFWCHZkaXRfN-32" value="Withdrawal from welfare fund " style="rounded=0;whiteSpace=wrap;html=1;" vertex="1" parent="WIyWlLk6GJQsqaUBKTNV-1">
          <mxGeometry x="-35" y="1020" width="110" height="60" as="geometry" />
        </mxCell>
        <mxCell id="gC5JRu4wmFWCHZkaXRfN-33" value="Give Out Loans" style="rounded=0;whiteSpace=wrap;html=1;" vertex="1" parent="WIyWlLk6GJQsqaUBKTNV-1">
          <mxGeometry x="-30" y="1140" width="90" height="60" as="geometry" />
        </mxCell>
        <mxCell id="gC5JRu4wmFWCHZkaXRfN-34" value="&lt;div&gt;Meeting summary&lt;/div&gt;&lt;div&gt;&lt;br&gt;&lt;/div&gt;&lt;div&gt;-choose Members to send meeting summary by sms&lt;br&gt;&lt;/div&gt;" style="rounded=0;whiteSpace=wrap;html=1;" vertex="1" parent="WIyWlLk6GJQsqaUBKTNV-1">
          <mxGeometry x="-40" y="1350" width="110" height="80" as="geometry" />
        </mxCell>
        <mxCell id="gC5JRu4wmFWCHZkaXRfN-35" value="&lt;div&gt;Balance Verification&lt;/div&gt;&lt;div&gt;-Saving fund&lt;br&gt;-Welfare fund&lt;br&gt;&lt;/div&gt;" style="rounded=0;whiteSpace=wrap;html=1;" vertex="1" parent="WIyWlLk6GJQsqaUBKTNV-1">
          <mxGeometry x="-30" y="1240" width="110" height="60" as="geometry" />
        </mxCell>
        <mxCell id="gC5JRu4wmFWCHZkaXRfN-36" value="" style="endArrow=classic;html=1;rounded=0;" edge="1" parent="WIyWlLk6GJQsqaUBKTNV-1">
          <mxGeometry width="50" height="50" relative="1" as="geometry">
            <mxPoint x="30" y="380" as="sourcePoint" />
            <mxPoint x="30" y="420" as="targetPoint" />
          </mxGeometry>
        </mxCell>
        <mxCell id="gC5JRu4wmFWCHZkaXRfN-37" value="" style="endArrow=classic;html=1;rounded=0;" edge="1" parent="WIyWlLk6GJQsqaUBKTNV-1">
          <mxGeometry width="50" height="50" relative="1" as="geometry">
            <mxPoint x="19.5" y="480" as="sourcePoint" />
            <mxPoint x="19.5" y="520" as="targetPoint" />
          </mxGeometry>
        </mxCell>
        <mxCell id="gC5JRu4wmFWCHZkaXRfN-38" value="Meeting flow" style="text;html=1;align=center;verticalAlign=middle;whiteSpace=wrap;rounded=0;" vertex="1" parent="WIyWlLk6GJQsqaUBKTNV-1">
          <mxGeometry x="-60" y="380" width="105" height="30" as="geometry" />
        </mxCell>
        <mxCell id="gC5JRu4wmFWCHZkaXRfN-39" value="" style="endArrow=classic;html=1;rounded=0;" edge="1" parent="WIyWlLk6GJQsqaUBKTNV-1">
          <mxGeometry width="50" height="50" relative="1" as="geometry">
            <mxPoint x="19.5" y="580" as="sourcePoint" />
            <mxPoint x="19.5" y="620" as="targetPoint" />
          </mxGeometry>
        </mxCell>
        <mxCell id="gC5JRu4wmFWCHZkaXRfN-40" value="" style="endArrow=classic;html=1;rounded=0;" edge="1" parent="WIyWlLk6GJQsqaUBKTNV-1">
          <mxGeometry width="50" height="50" relative="1" as="geometry">
            <mxPoint x="20" y="680" as="sourcePoint" />
            <mxPoint x="19.5" y="730" as="targetPoint" />
          </mxGeometry>
        </mxCell>
        <mxCell id="gC5JRu4wmFWCHZkaXRfN-41" value="" style="endArrow=classic;html=1;rounded=0;" edge="1" parent="WIyWlLk6GJQsqaUBKTNV-1">
          <mxGeometry width="50" height="50" relative="1" as="geometry">
            <mxPoint x="20" y="790" as="sourcePoint" />
            <mxPoint x="19.5" y="820" as="targetPoint" />
          </mxGeometry>
        </mxCell>
        <mxCell id="gC5JRu4wmFWCHZkaXRfN-42" value="" style="endArrow=classic;html=1;rounded=0;" edge="1" parent="WIyWlLk6GJQsqaUBKTNV-1">
          <mxGeometry width="50" height="50" relative="1" as="geometry">
            <mxPoint x="20" y="880" as="sourcePoint" />
            <mxPoint x="19.5" y="920" as="targetPoint" />
          </mxGeometry>
        </mxCell>
        <mxCell id="gC5JRu4wmFWCHZkaXRfN-43" value="" style="endArrow=classic;html=1;rounded=0;" edge="1" parent="WIyWlLk6GJQsqaUBKTNV-1">
          <mxGeometry width="50" height="50" relative="1" as="geometry">
            <mxPoint x="20" y="980" as="sourcePoint" />
            <mxPoint x="19.5" y="1020" as="targetPoint" />
          </mxGeometry>
        </mxCell>
        <mxCell id="gC5JRu4wmFWCHZkaXRfN-44" value="" style="endArrow=classic;html=1;rounded=0;" edge="1" parent="WIyWlLk6GJQsqaUBKTNV-1">
          <mxGeometry width="50" height="50" relative="1" as="geometry">
            <mxPoint x="19.5" y="1080" as="sourcePoint" />
            <mxPoint x="19.5" y="1140" as="targetPoint" />
          </mxGeometry>
        </mxCell>
        <mxCell id="gC5JRu4wmFWCHZkaXRfN-45" value="" style="endArrow=classic;html=1;rounded=0;" edge="1" parent="WIyWlLk6GJQsqaUBKTNV-1">
          <mxGeometry width="50" height="50" relative="1" as="geometry">
            <mxPoint x="20" y="1200" as="sourcePoint" />
            <mxPoint x="19.5" y="1240" as="targetPoint" />
          </mxGeometry>
        </mxCell>
        <mxCell id="gC5JRu4wmFWCHZkaXRfN-46" value="" style="endArrow=classic;html=1;rounded=0;" edge="1" parent="WIyWlLk6GJQsqaUBKTNV-1">
          <mxGeometry width="50" height="50" relative="1" as="geometry">
            <mxPoint x="20" y="1300" as="sourcePoint" />
            <mxPoint x="19.5" y="1350" as="targetPoint" />
          </mxGeometry>
        </mxCell>
        <mxCell id="gC5JRu4wmFWCHZkaXRfN-51" value="is_Active?" style="rhombus;whiteSpace=wrap;html=1;" vertex="1" parent="WIyWlLk6GJQsqaUBKTNV-1">
          <mxGeometry x="110" y="430" width="80" height="80" as="geometry" />
        </mxCell>
        <mxCell id="gC5JRu4wmFWCHZkaXRfN-54" value="" style="endArrow=classic;html=1;rounded=0;entryX=0.5;entryY=0;entryDx=0;entryDy=0;" edge="1" parent="WIyWlLk6GJQsqaUBKTNV-1" target="gC5JRu4wmFWCHZkaXRfN-51">
          <mxGeometry width="50" height="50" relative="1" as="geometry">
            <mxPoint x="150" y="380" as="sourcePoint" />
            <mxPoint x="170" y="420" as="targetPoint" />
            <Array as="points">
              <mxPoint x="150" y="400" />
            </Array>
          </mxGeometry>
        </mxCell>
        <mxCell id="gC5JRu4wmFWCHZkaXRfN-55" value="List of Members with Active loans" style="rounded=0;whiteSpace=wrap;html=1;" vertex="1" parent="WIyWlLk6GJQsqaUBKTNV-1">
          <mxGeometry x="100" y="550" width="120" height="60" as="geometry" />
        </mxCell>
        <mxCell id="gC5JRu4wmFWCHZkaXRfN-60" value="" style="endArrow=classic;html=1;rounded=0;entryX=0.425;entryY=-0.033;entryDx=0;entryDy=0;entryPerimeter=0;" edge="1" parent="WIyWlLk6GJQsqaUBKTNV-1" target="gC5JRu4wmFWCHZkaXRfN-55">
          <mxGeometry relative="1" as="geometry">
            <mxPoint x="150" y="510" as="sourcePoint" />
            <mxPoint x="250" y="510" as="targetPoint" />
          </mxGeometry>
        </mxCell>
        <mxCell id="gC5JRu4wmFWCHZkaXRfN-61" value="Yes" style="edgeLabel;resizable=0;html=1;;align=center;verticalAlign=middle;" connectable="0" vertex="1" parent="gC5JRu4wmFWCHZkaXRfN-60">
          <mxGeometry relative="1" as="geometry" />
        </mxCell>
        <mxCell id="gC5JRu4wmFWCHZkaXRfN-64" value="" style="endArrow=classic;html=1;rounded=0;" edge="1" parent="WIyWlLk6GJQsqaUBKTNV-1">
          <mxGeometry relative="1" as="geometry">
            <mxPoint x="190" y="469.5" as="sourcePoint" />
            <mxPoint x="240" y="470" as="targetPoint" />
          </mxGeometry>
        </mxCell>
        <mxCell id="gC5JRu4wmFWCHZkaXRfN-65" value="No" style="edgeLabel;resizable=0;html=1;;align=center;verticalAlign=middle;" connectable="0" vertex="1" parent="gC5JRu4wmFWCHZkaXRfN-64">
          <mxGeometry relative="1" as="geometry" />
        </mxCell>
        <mxCell id="gC5JRu4wmFWCHZkaXRfN-67" value="Inactive Loans" style="rounded=0;whiteSpace=wrap;html=1;" vertex="1" parent="WIyWlLk6GJQsqaUBKTNV-1">
          <mxGeometry x="240" y="440" width="70" height="60" as="geometry" />
        </mxCell>
        <mxCell id="gC5JRu4wmFWCHZkaXRfN-68" value="" style="endArrow=none;html=1;rounded=0;entryX=0.882;entryY=1.033;entryDx=0;entryDy=0;entryPerimeter=0;" edge="1" parent="WIyWlLk6GJQsqaUBKTNV-1" target="gC5JRu4wmFWCHZkaXRfN-3">
          <mxGeometry width="50" height="50" relative="1" as="geometry">
            <mxPoint x="317" y="640" as="sourcePoint" />
            <mxPoint x="380" y="430" as="targetPoint" />
          </mxGeometry>
        </mxCell>
        <mxCell id="gC5JRu4wmFWCHZkaXRfN-69" value="" style="endArrow=none;html=1;rounded=0;" edge="1" parent="WIyWlLk6GJQsqaUBKTNV-1">
          <mxGeometry width="50" height="50" relative="1" as="geometry">
            <mxPoint x="180" y="640" as="sourcePoint" />
            <mxPoint x="340" y="640" as="targetPoint" />
          </mxGeometry>
        </mxCell>
        <mxCell id="gC5JRu4wmFWCHZkaXRfN-70" value="Complete cyle" style="rounded=0;whiteSpace=wrap;html=1;" vertex="1" parent="WIyWlLk6GJQsqaUBKTNV-1">
          <mxGeometry x="129" y="690" width="91" height="60" as="geometry" />
        </mxCell>
        <mxCell id="gC5JRu4wmFWCHZkaXRfN-71" value="Completely remove a member from our Group" style="rounded=0;whiteSpace=wrap;html=1;" vertex="1" parent="WIyWlLk6GJQsqaUBKTNV-1">
          <mxGeometry x="270" y="690" width="120" height="60" as="geometry" />
        </mxCell>
        <mxCell id="gC5JRu4wmFWCHZkaXRfN-72" value="" style="endArrow=classic;html=1;rounded=0;" edge="1" parent="WIyWlLk6GJQsqaUBKTNV-1">
          <mxGeometry width="50" height="50" relative="1" as="geometry">
            <mxPoint x="180.5" y="640" as="sourcePoint" />
            <mxPoint x="180" y="690" as="targetPoint" />
          </mxGeometry>
        </mxCell>
        <mxCell id="gC5JRu4wmFWCHZkaXRfN-73" value="" style="endArrow=classic;html=1;rounded=0;" edge="1" parent="WIyWlLk6GJQsqaUBKTNV-1">
          <mxGeometry width="50" height="50" relative="1" as="geometry">
            <mxPoint x="340.5" y="640" as="sourcePoint" />
            <mxPoint x="340" y="690" as="targetPoint" />
          </mxGeometry>
        </mxCell>
        <mxCell id="gC5JRu4wmFWCHZkaXRfN-74" value="List of all Group Members" style="rounded=0;whiteSpace=wrap;html=1;" vertex="1" parent="WIyWlLk6GJQsqaUBKTNV-1">
          <mxGeometry x="360" y="500" width="60" height="60" as="geometry" />
        </mxCell>
        <mxCell id="gC5JRu4wmFWCHZkaXRfN-75" value="Add a new member" style="rounded=0;whiteSpace=wrap;html=1;" vertex="1" parent="WIyWlLk6GJQsqaUBKTNV-1">
          <mxGeometry x="440" y="500" width="60" height="60" as="geometry" />
        </mxCell>
        <mxCell id="gC5JRu4wmFWCHZkaXRfN-76" value="" style="endArrow=none;html=1;rounded=0;entryX=0.882;entryY=1.033;entryDx=0;entryDy=0;entryPerimeter=0;" edge="1" parent="WIyWlLk6GJQsqaUBKTNV-1">
          <mxGeometry width="50" height="50" relative="1" as="geometry">
            <mxPoint x="442" y="450" as="sourcePoint" />
            <mxPoint x="441.5" y="380" as="targetPoint" />
          </mxGeometry>
        </mxCell>
        <mxCell id="gC5JRu4wmFWCHZkaXRfN-77" value="" style="endArrow=none;html=1;rounded=0;" edge="1" parent="WIyWlLk6GJQsqaUBKTNV-1">
          <mxGeometry width="50" height="50" relative="1" as="geometry">
            <mxPoint x="390" y="450" as="sourcePoint" />
            <mxPoint x="470" y="450" as="targetPoint" />
          </mxGeometry>
        </mxCell>
        <mxCell id="gC5JRu4wmFWCHZkaXRfN-78" value="" style="endArrow=classic;html=1;rounded=0;" edge="1" parent="WIyWlLk6GJQsqaUBKTNV-1">
          <mxGeometry width="50" height="50" relative="1" as="geometry">
            <mxPoint x="470.5" y="450" as="sourcePoint" />
            <mxPoint x="470" y="500" as="targetPoint" />
          </mxGeometry>
        </mxCell>
        <mxCell id="gC5JRu4wmFWCHZkaXRfN-79" value="" style="endArrow=classic;html=1;rounded=0;" edge="1" parent="WIyWlLk6GJQsqaUBKTNV-1">
          <mxGeometry width="50" height="50" relative="1" as="geometry">
            <mxPoint x="390.5" y="450" as="sourcePoint" />
            <mxPoint x="390" y="500" as="targetPoint" />
          </mxGeometry>
        </mxCell>
        <mxCell id="gC5JRu4wmFWCHZkaXRfN-80" value="" style="endArrow=none;html=1;rounded=0;entryX=0.882;entryY=1.033;entryDx=0;entryDy=0;entryPerimeter=0;" edge="1" parent="WIyWlLk6GJQsqaUBKTNV-1">
          <mxGeometry width="50" height="50" relative="1" as="geometry">
            <mxPoint x="520.5" y="450" as="sourcePoint" />
            <mxPoint x="520" y="380" as="targetPoint" />
          </mxGeometry>
        </mxCell>
        <mxCell id="gC5JRu4wmFWCHZkaXRfN-81" value="" style="endArrow=none;html=1;rounded=0;" edge="1" parent="WIyWlLk6GJQsqaUBKTNV-1">
          <mxGeometry width="50" height="50" relative="1" as="geometry">
            <mxPoint x="520" y="449.5" as="sourcePoint" />
            <mxPoint x="560" y="450" as="targetPoint" />
          </mxGeometry>
        </mxCell>
        <mxCell id="gC5JRu4wmFWCHZkaXRfN-82" value="" style="endArrow=none;html=1;rounded=0;entryX=0.882;entryY=1.033;entryDx=0;entryDy=0;entryPerimeter=0;" edge="1" parent="WIyWlLk6GJQsqaUBKTNV-1">
          <mxGeometry width="50" height="50" relative="1" as="geometry">
            <mxPoint x="560" y="480" as="sourcePoint" />
            <mxPoint x="560" y="450" as="targetPoint" />
          </mxGeometry>
        </mxCell>
        <mxCell id="gC5JRu4wmFWCHZkaXRfN-83" value="" style="endArrow=none;html=1;rounded=0;" edge="1" parent="WIyWlLk6GJQsqaUBKTNV-1">
          <mxGeometry width="50" height="50" relative="1" as="geometry">
            <mxPoint x="550" y="480" as="sourcePoint" />
            <mxPoint x="610" y="481" as="targetPoint" />
          </mxGeometry>
        </mxCell>
        <mxCell id="gC5JRu4wmFWCHZkaXRfN-84" value="Group cycle/ meetings " style="rounded=0;whiteSpace=wrap;html=1;" vertex="1" parent="WIyWlLk6GJQsqaUBKTNV-1">
          <mxGeometry x="520" y="500" width="60" height="60" as="geometry" />
        </mxCell>
        <mxCell id="gC5JRu4wmFWCHZkaXRfN-85" value="Member history" style="rounded=0;whiteSpace=wrap;html=1;" vertex="1" parent="WIyWlLk6GJQsqaUBKTNV-1">
          <mxGeometry x="590" y="500" width="60" height="60" as="geometry" />
        </mxCell>
        <mxCell id="gC5JRu4wmFWCHZkaXRfN-86" value="" style="endArrow=classic;html=1;rounded=0;" edge="1" parent="WIyWlLk6GJQsqaUBKTNV-1">
          <mxGeometry width="50" height="50" relative="1" as="geometry">
            <mxPoint x="610.5" y="480" as="sourcePoint" />
            <mxPoint x="610" y="500" as="targetPoint" />
          </mxGeometry>
        </mxCell>
        <mxCell id="gC5JRu4wmFWCHZkaXRfN-87" value="" style="endArrow=classic;html=1;rounded=0;" edge="1" parent="WIyWlLk6GJQsqaUBKTNV-1">
          <mxGeometry width="50" height="50" relative="1" as="geometry">
            <mxPoint x="550" y="480" as="sourcePoint" />
            <mxPoint x="550" y="500" as="targetPoint" />
          </mxGeometry>
        </mxCell>
      </root>
    </mxGraphModel>
  </diagram>
</mxfile>
